<svg xmlns="http://www.w3.org/2000/svg" width="36" height="36" viewBox="0 0 36 36"><defs><style>.a{fill:none;}.b{fill:#2699FB;}</style></defs><g transform="translate(0)"><path class="a" d="M0,0H36V36H0Z"/><circle class="b" cx="1.5" cy="1.5" r="1.5" transform="translate(22 12.571)"/><circle class="b" cx="1.5" cy="1.5" r="1.5" transform="translate(11 12.571)"/><path class="b" d="M17.984,2A16,16,0,1,0,34,18,15.992,15.992,0,0,0,17.984,2ZM18,30.8A12.8,12.8,0,1,1,30.8,18,12.8,12.8,0,0,1,18,30.8Zm0-5.6a6.151,6.151,0,0,1,3.152.848c.192-.224,1.376-1.568,1.616-1.824A8.623,8.623,0,0,0,18,22.8a8.837,8.837,0,0,0-4.784,1.408c1.552,1.744.016.032,1.616,1.824A6.4,6.4,0,0,1,18,25.2Z"/></g></svg>