<svg xmlns="http://www.w3.org/2000/svg" width="36" height="36" viewBox="0 0 36 36"><defs><style>.a{fill:none;}.b{fill:#2699FB;}</style></defs><path class="a" d="M0,0H36V36H0Z"/><circle class="b" cx="1.5" cy="1.5" r="1.5" transform="translate(22 12.571)"/><circle class="b" cx="1.5" cy="1.5" r="1.5" transform="translate(11 12.571)"/><path class="b" d="M17.984,2A16,16,0,1,0,34,18,15.992,15.992,0,0,0,17.984,2ZM18,30.8A12.8,12.8,0,1,1,30.8,18,12.8,12.8,0,0,1,18,30.8Zm-8-9.6c1.248,3.744,4.352,6.4,8,6.4s6.752-2.656,8-6.4Z"/></svg>