<?xml version="1.0" encoding="utf-8"?>
<!-- Generator: Adobe Illustrator 23.0.1, SVG Export Plug-In . SVG Version: 6.00 Build 0)  -->
<svg version="1.1" id="Layer_1" xmlns="http://www.w3.org/2000/svg" xmlns:xlink="http://www.w3.org/1999/xlink" x="0px" y="0px"
	 viewBox="0 0 16 16" style="enable-background:new 0 0 16 16;" xml:space="preserve">
<style type="text/css">
	.st0{fill:#212121;}
</style>
<path id="Tracé_13" class="st0" d="M2.4,2.4C3.8,0.8,5.9-0.1,8,0c2.1-0.1,4.2,0.8,5.6,2.4C15.2,3.8,16.1,5.9,16,8
	c0.1,2.1-0.8,4.2-2.4,5.6c-1.4,1.6-3.5,2.5-5.6,2.4c-2.1,0.1-4.2-0.8-5.6-2.4C0.9,12.1,0,10.1,0,8C-0.1,5.9,0.8,3.8,2.4,2.4z
	 M11.6,11.6l0.9-0.9L9.2,7.3L8,2H6.7v6c0,0.4,0.1,0.7,0.4,0.9C7.1,9,7.2,9.1,7.3,9.1L11.6,11.6z"/>
</svg>
